<svg id="Capa_1" enable-background="new 0 0 512 512" height="512" viewBox="0 0 512 512" width="512" xmlns="http://www.w3.org/2000/svg"><g><path d="m276 452v40c0 11.046-8.954 20-20 20-11.045 0-20-8.954-20-20v-40c0-11.046 8.955-20 20-20 11.046 0 20 8.954 20 20zm-172.735-377.021c-7.811-7.811-20.474-7.81-28.284.001-7.811 7.81-7.811 20.474 0 28.284l28.285 28.284c7.81 7.81 20.473 7.81 28.284-.001 7.811-7.81 7.811-20.474 0-28.284zm305.47 305.471c-7.811-7.811-20.474-7.811-28.284 0s-7.811 20.475 0 28.285l28.284 28.284c7.809 7.809 20.473 7.811 28.284 0s7.811-20.475 0-28.285zm-328.735-124.45c0-11.046-8.954-20-20-20h-40c-11.045 0-20 8.954-20 20s8.955 20 20 20h40c11.046 0 20-8.954 20-20zm23.266 124.45-28.285 28.284c-7.811 7.811-7.811 20.475 0 28.284 7.81 7.81 20.473 7.812 28.284.001l28.285-28.284c7.811-7.811 7.811-20.475 0-28.284-7.81-7.81-20.474-7.809-28.284-.001zm305.469-248.901 28.284-28.284c7.811-7.811 7.811-20.475 0-28.285s-20.474-7.811-28.284 0l-28.284 28.284c-7.811 7.811-7.811 20.475 0 28.285 7.809 7.809 20.474 7.811 28.284 0zm83.265 104.451h-216v-216c0-11.046-8.954-20-20-20-11.045 0-20 8.954-20 20v236c0 11.046 8.955 20 20 20h236c11.046 0 20-8.954 20-20s-8.954-20-20-20z"/></g></svg>